<svg xmlns="http://www.w3.org/2000/svg" xmlns:xlink="http://www.w3.org/1999/xlink" width="500" zoomAndPan="magnify" viewBox="0 0 375 374.999991" height="500" preserveAspectRatio="xMidYMid meet" version="1.0"><defs><clipPath id="5883baca83"><path d="M 108 206.078125 L 219.148438 206.078125 L 219.148438 299.9375 L 108 299.9375 Z M 108 206.078125 " clip-rule="nonzero"/></clipPath><clipPath id="1975c4cca1"><path d="M 187.5 146.980469 L 267.375 146.980469 L 267.375 161.101562 L 187.5 161.101562 Z M 187.5 146.980469 " clip-rule="nonzero"/></clipPath><clipPath id="2162f42161"><path d="M 227.433594 161.101562 L 267.363281 146.980469 L 187.5 146.980469 Z M 227.433594 161.101562 " clip-rule="nonzero"/></clipPath><clipPath id="efd6a6d86d"><path d="M 186.667969 108.960938 L 207.320312 108.960938 L 207.320312 124.421875 L 186.667969 124.421875 Z M 186.667969 108.960938 " clip-rule="nonzero"/></clipPath><clipPath id="8c5b9cc198"><path d="M 202.125 108.960938 L 186.667969 108.960938 L 191.820312 124.421875 L 207.28125 124.421875 Z M 202.125 108.960938 " clip-rule="nonzero"/></clipPath><clipPath id="0b3a310cd1"><path d="M 260.269531 105.789062 L 269.265625 105.789062 L 269.265625 110.4375 L 260.269531 110.4375 Z M 260.269531 105.789062 " clip-rule="nonzero"/></clipPath><clipPath id="b7243ab1eb"><path d="M 264.765625 105.789062 L 269.261719 110.4375 L 260.269531 110.4375 Z M 264.765625 105.789062 " clip-rule="nonzero"/></clipPath><clipPath id="84d5cc738b"><path d="M 225.28125 108.960938 L 269.300781 108.960938 L 269.300781 121.652344 L 225.28125 121.652344 Z M 225.28125 108.960938 " clip-rule="nonzero"/></clipPath><clipPath id="cd9a0a5ffd"><path d="M 230.6875 108.960938 L 269.261719 108.960938 L 263.855469 121.652344 L 225.28125 121.652344 Z M 230.6875 108.960938 " clip-rule="nonzero"/></clipPath><clipPath id="ed0faa4eb4"><path d="M 188.144531 112.285156 L 267.902344 112.285156 L 267.902344 147.851562 L 188.144531 147.851562 Z M 188.144531 112.285156 " clip-rule="nonzero"/></clipPath><clipPath id="8c7f3aa199"><path d="M 210 65.5625 L 245 65.5625 L 245 101 L 210 101 Z M 210 65.5625 " clip-rule="nonzero"/></clipPath><clipPath id="aba361e2f5"><path d="M 182.425781 97 L 272.480469 97 L 272.480469 160.6875 L 182.425781 160.6875 Z M 182.425781 97 " clip-rule="nonzero"/></clipPath><clipPath id="8cb42610c9"><path d="M 37.5 133 L 267 133 L 267 250 L 37.5 250 Z M 37.5 133 " clip-rule="nonzero"/></clipPath></defs><path fill="#00a0ff" d="M 111.160156 258.460938 C 110.828125 259.835938 110.617188 261.253906 110.535156 262.707031 C 110.523438 262.882812 110.667969 263.027344 110.839844 263.027344 L 130.625 263.027344 C 130.898438 263.027344 131.03125 262.699219 130.839844 262.507812 C 129.441406 261.121094 128.09375 259.722656 126.789062 258.324219 C 126.730469 258.261719 126.652344 258.226562 126.566406 258.226562 L 111.457031 258.226562 C 111.316406 258.226562 111.191406 258.324219 111.160156 258.460938 Z M 110.664062 267.027344 C 110.84375 268.566406 111.175781 270.070312 111.636719 271.511719 C 111.675781 271.640625 111.792969 271.726562 111.925781 271.726562 L 139.984375 271.726562 C 140.265625 271.726562 140.394531 271.375 140.183594 271.191406 C 138.5 269.734375 136.855469 268.257812 135.257812 266.765625 C 135.203125 266.714844 135.128906 266.6875 135.050781 266.6875 L 110.96875 266.6875 C 110.785156 266.6875 110.640625 266.84375 110.664062 267.027344 Z M 113.488281 275.832031 C 114.375 277.445312 115.4375 278.953125 116.652344 280.320312 C 116.710938 280.386719 116.792969 280.425781 116.882812 280.425781 L 150.792969 280.425781 C 151.085938 280.425781 151.207031 280.054688 150.972656 279.878906 C 149.066406 278.457031 147.164062 276.980469 145.273438 275.449219 C 145.21875 275.40625 145.152344 275.382812 145.082031 275.382812 L 113.757812 275.382812 C 113.527344 275.382812 113.378906 275.628906 113.488281 275.832031 Z M 121.648438 284.644531 C 125.175781 286.949219 129.332031 288.371094 133.792969 288.574219 C 136.496094 288.699219 139.105469 288.382812 141.558594 287.695312 C 145.292969 286.648438 149.226562 286.726562 152.96875 287.742188 C 155.019531 288.304688 157.175781 288.605469 159.398438 288.605469 C 160.523438 288.605469 161.632812 288.527344 162.71875 288.378906 C 162.925781 288.351562 162.984375 288.074219 162.804688 287.960938 C 160.855469 286.753906 158.894531 285.476562 156.9375 284.136719 C 156.886719 284.101562 156.824219 284.082031 156.765625 284.082031 L 121.816406 284.082031 C 121.511719 284.082031 121.394531 284.476562 121.648438 284.644531 Z M 117.585938 247.4375 C 119.246094 249.628906 121.039062 251.847656 122.960938 254.066406 C 123.128906 254.265625 122.992188 254.570312 122.730469 254.570312 L 112.910156 254.570312 C 112.6875 254.570312 112.539062 254.34375 112.628906 254.140625 C 113.746094 251.652344 115.273438 249.378906 117.121094 247.410156 C 117.253906 247.273438 117.472656 247.289062 117.585938 247.4375 " fill-opacity="1" fill-rule="nonzero"/><g clip-path="url(#5883baca83)"><path fill="#6d27df" d="M 212.367188 287.417969 C 211.277344 287.210938 210.398438 286.332031 210.191406 285.242188 C 209.820312 283.296875 211.503906 281.613281 213.449219 281.984375 C 214.539062 282.191406 215.417969 283.070312 215.625 284.160156 C 215.996094 286.105469 214.3125 287.789062 212.367188 287.417969 Z M 135.089844 209.882812 C 136.179688 210.089844 137.054688 210.96875 137.265625 212.058594 C 137.636719 214.003906 135.953125 215.6875 134.003906 215.316406 C 132.914062 215.109375 132.039062 214.230469 131.832031 213.140625 C 131.457031 211.195312 133.140625 209.511719 135.089844 209.882812 Z M 146.679688 272.433594 C 160.125 283.351562 174.253906 291.820312 186.460938 296.289062 C 192.5 298.496094 197.777344 299.597656 202.109375 299.597656 C 206.960938 299.597656 210.632812 298.214844 212.867188 295.464844 C 213.949219 294.128906 214.652344 292.519531 214.972656 290.671875 C 217.449219 289.8125 219.234375 287.464844 219.234375 284.703125 C 219.234375 280.972656 215.992188 277.988281 212.179688 278.417969 C 209.167969 278.753906 206.785156 281.273438 206.597656 284.300781 C 206.402344 287.410156 208.472656 290.070312 211.308594 290.8125 C 211.058594 291.738281 210.65625 292.546875 210.105469 293.222656 C 206.953125 297.105469 198.78125 297.003906 187.683594 292.949219 C 183.644531 291.46875 179.378906 289.535156 174.996094 287.203125 C 175.75 287.324219 176.472656 287.542969 177.246094 287.695312 C 179.746094 288.1875 182.308594 288.703125 185.003906 288.578125 C 197.847656 287.988281 208.132812 277.34375 208.304688 264.492188 C 208.496094 250.828125 197.476562 239.695312 183.855469 239.695312 L 183.824219 239.695312 C 183.847656 239.296875 183.855469 238.894531 183.855469 238.488281 C 183.855469 224.984375 172.910156 214.03125 159.402344 214.03125 C 145.894531 214.03125 134.949219 224.984375 134.949219 238.488281 C 134.949219 238.894531 134.957031 239.296875 134.980469 239.695312 L 134.949219 239.695312 C 131.304688 239.695312 127.851562 240.496094 124.746094 241.925781 C 123.464844 242.515625 121.945312 242.070312 121.125 240.921875 C 120.070312 239.4375 119.085938 237.964844 118.183594 236.515625 C 111.933594 226.488281 110.15625 218.507812 113.3125 214.625 C 115.675781 211.714844 120.941406 211.03125 128.226562 212.65625 C 128.253906 216.117188 131.078125 218.921875 134.546875 218.921875 C 138.273438 218.921875 141.257812 215.683594 140.832031 211.871094 C 140.5 208.929688 138.089844 206.574219 135.140625 206.300781 C 132.648438 206.074219 130.421875 207.304688 129.203125 209.230469 C 120.308594 207.207031 113.878906 208.289062 110.550781 212.382812 C 106.320312 217.59375 107.957031 226.832031 115.167969 238.398438 C 122.042969 249.429688 133.234375 261.515625 146.679688 272.433594 " fill-opacity="1" fill-rule="nonzero"/></g><g clip-path="url(#1975c4cca1)"><g clip-path="url(#2162f42161)"><path fill="#0cc0df" d="M 187.5 146.980469 L 267.375 146.980469 L 267.375 161.101562 L 187.5 161.101562 Z M 187.5 146.980469 " fill-opacity="1" fill-rule="nonzero"/></g></g><g clip-path="url(#efd6a6d86d)"><g clip-path="url(#8c5b9cc198)"><path fill="#0cc0df" d="M 186.667969 108.960938 L 207.257812 108.960938 L 207.257812 124.421875 L 186.667969 124.421875 Z M 186.667969 108.960938 " fill-opacity="1" fill-rule="nonzero"/></g></g><g clip-path="url(#0b3a310cd1)"><g clip-path="url(#b7243ab1eb)"><path fill="#0cc0df" d="M 260.269531 105.789062 L 269.265625 105.789062 L 269.265625 110.4375 L 260.269531 110.4375 Z M 260.269531 105.789062 " fill-opacity="1" fill-rule="nonzero"/></g></g><g clip-path="url(#84d5cc738b)"><g clip-path="url(#cd9a0a5ffd)"><path fill="#0cc0df" d="M 225.28125 108.960938 L 269.25 108.960938 L 269.25 121.652344 L 225.28125 121.652344 Z M 225.28125 108.960938 " fill-opacity="1" fill-rule="nonzero"/></g></g><g clip-path="url(#ed0faa4eb4)"><path fill="#0cc0df" d="M 188.144531 112.285156 L 267.886719 112.285156 L 267.886719 147.851562 L 188.144531 147.851562 Z M 188.144531 112.285156 " fill-opacity="1" fill-rule="nonzero"/></g><g clip-path="url(#8c7f3aa199)"><path fill="#5e17eb" d="M 244.882812 82.820312 C 244.882812 83.386719 244.851562 83.949219 244.796875 84.511719 C 244.742188 85.074219 244.660156 85.632812 244.550781 86.1875 C 244.4375 86.742188 244.300781 87.289062 244.136719 87.832031 C 243.972656 88.371094 243.785156 88.902344 243.566406 89.425781 C 243.351562 89.945312 243.109375 90.457031 242.84375 90.957031 C 242.578125 91.453125 242.285156 91.9375 241.972656 92.410156 C 241.660156 92.878906 241.320312 93.332031 240.964844 93.769531 C 240.605469 94.207031 240.226562 94.625 239.824219 95.023438 C 239.425781 95.421875 239.007812 95.804688 238.570312 96.160156 C 238.132812 96.519531 237.679688 96.855469 237.210938 97.171875 C 236.742188 97.484375 236.257812 97.773438 235.757812 98.042969 C 235.257812 98.308594 234.75 98.550781 234.226562 98.765625 C 233.703125 98.980469 233.171875 99.171875 232.632812 99.335938 C 232.089844 99.5 231.542969 99.636719 230.988281 99.746094 C 230.433594 99.859375 229.875 99.941406 229.3125 99.996094 C 228.75 100.050781 228.1875 100.078125 227.621094 100.078125 C 227.058594 100.078125 226.492188 100.050781 225.929688 99.996094 C 225.367188 99.941406 224.808594 99.859375 224.253906 99.746094 C 223.699219 99.636719 223.152344 99.5 222.613281 99.335938 C 222.070312 99.171875 221.539062 98.980469 221.015625 98.765625 C 220.496094 98.550781 219.984375 98.308594 219.488281 98.042969 C 218.988281 97.773438 218.503906 97.484375 218.035156 97.171875 C 217.5625 96.855469 217.109375 96.519531 216.671875 96.160156 C 216.238281 95.804688 215.816406 95.421875 215.417969 95.023438 C 215.019531 94.625 214.640625 94.207031 214.28125 93.769531 C 213.921875 93.332031 213.585938 92.878906 213.273438 92.410156 C 212.957031 91.9375 212.667969 91.453125 212.402344 90.957031 C 212.136719 90.457031 211.894531 89.945312 211.675781 89.425781 C 211.460938 88.902344 211.269531 88.371094 211.105469 87.832031 C 210.941406 87.289062 210.804688 86.742188 210.695312 86.1875 C 210.585938 85.632812 210.5 85.074219 210.445312 84.511719 C 210.390625 83.949219 210.363281 83.386719 210.363281 82.820312 C 210.363281 82.253906 210.390625 81.691406 210.445312 81.128906 C 210.5 80.566406 210.585938 80.007812 210.695312 79.453125 C 210.804688 78.898438 210.941406 78.351562 211.105469 77.808594 C 211.269531 77.269531 211.460938 76.738281 211.675781 76.214844 C 211.894531 75.691406 212.136719 75.183594 212.402344 74.683594 C 212.667969 74.1875 212.957031 73.703125 213.273438 73.230469 C 213.585938 72.761719 213.921875 72.308594 214.28125 71.871094 C 214.640625 71.433594 215.019531 71.015625 215.417969 70.617188 C 215.816406 70.214844 216.238281 69.835938 216.671875 69.480469 C 217.109375 69.121094 217.5625 68.785156 218.035156 68.46875 C 218.503906 68.15625 218.988281 67.867188 219.488281 67.597656 C 219.984375 67.332031 220.496094 67.089844 221.015625 66.875 C 221.539062 66.660156 222.070312 66.46875 222.613281 66.304688 C 223.152344 66.140625 223.699219 66.003906 224.253906 65.894531 C 224.808594 65.78125 225.367188 65.699219 225.929688 65.644531 C 226.492188 65.589844 227.058594 65.5625 227.621094 65.5625 C 228.1875 65.5625 228.75 65.589844 229.3125 65.644531 C 229.875 65.699219 230.433594 65.78125 230.988281 65.894531 C 231.542969 66.003906 232.089844 66.140625 232.632812 66.304688 C 233.171875 66.46875 233.703125 66.660156 234.226562 66.875 C 234.75 67.089844 235.257812 67.332031 235.757812 67.597656 C 236.257812 67.867188 236.742188 68.15625 237.210938 68.46875 C 237.679688 68.785156 238.132812 69.121094 238.570312 69.480469 C 239.007812 69.835938 239.425781 70.214844 239.824219 70.617188 C 240.226562 71.015625 240.605469 71.433594 240.964844 71.871094 C 241.320312 72.308594 241.660156 72.761719 241.972656 73.230469 C 242.285156 73.703125 242.578125 74.1875 242.84375 74.683594 C 243.109375 75.183594 243.351562 75.691406 243.566406 76.214844 C 243.785156 76.738281 243.972656 77.269531 244.136719 77.808594 C 244.300781 78.351562 244.4375 78.898438 244.550781 79.453125 C 244.660156 80.007812 244.742188 80.566406 244.796875 81.128906 C 244.851562 81.691406 244.882812 82.253906 244.882812 82.820312 Z M 244.882812 82.820312 " fill-opacity="1" fill-rule="nonzero"/></g><g clip-path="url(#aba361e2f5)"><path fill="#5e17eb" d="M 268.894531 145.878906 L 268.894531 133.308594 C 271.105469 132.363281 272.644531 130.265625 272.644531 127.824219 L 272.644531 123.359375 C 272.644531 120.917969 271.105469 118.824219 268.894531 117.875 L 268.894531 106.832031 C 268.894531 105.515625 268.082031 104.675781 266.964844 104.675781 C 266.683594 104.675781 266.378906 104.730469 266.066406 104.84375 L 256.625 108.222656 C 252.710938 103.328125 247.484375 99.640625 241.304688 97.75 C 237.695312 101.058594 232.890625 103.082031 227.621094 103.082031 C 222.355469 103.082031 217.554688 101.058594 213.945312 97.753906 C 207.503906 99.722656 202.089844 103.640625 198.125 108.847656 L 189.195312 105.847656 C 188.898438 105.746094 188.609375 105.699219 188.339844 105.699219 C 187.1875 105.699219 186.351562 106.558594 186.351562 107.894531 L 186.351562 117.875 C 184.140625 118.824219 182.597656 120.917969 182.597656 123.359375 L 182.597656 127.824219 C 182.597656 130.265625 184.140625 132.363281 186.351562 133.308594 L 186.351562 145.347656 C 186.351562 146.996094 187.636719 148.761719 189.207031 149.269531 L 224.546875 160.6875 C 225.355469 160.949219 226.433594 161.082031 227.503906 161.082031 C 228.507812 161.082031 229.507812 160.964844 230.273438 160.730469 L 266.023438 149.757812 C 267.601562 149.273438 268.894531 147.527344 268.894531 145.878906 Z M 226.121094 157.972656 C 225.855469 157.929688 225.625 157.882812 225.46875 157.832031 L 190.128906 146.414062 C 189.796875 146.304688 189.351562 145.699219 189.351562 145.347656 L 189.351562 133.828125 C 192.699219 133.644531 195.355469 131.03125 195.355469 127.824219 L 195.355469 123.359375 C 195.355469 120.152344 192.699219 117.539062 189.351562 117.355469 L 189.351562 109.066406 L 223.601562 120.574219 C 224.453125 120.859375 225.339844 121 226.121094 121.0625 Z M 265.890625 117.355469 C 262.546875 117.539062 259.890625 120.152344 259.890625 123.359375 L 259.890625 127.824219 C 259.890625 131.03125 262.546875 133.644531 265.890625 133.828125 L 265.890625 145.878906 C 265.890625 146.207031 265.457031 146.792969 265.144531 146.890625 L 229.394531 157.859375 C 229.3125 157.886719 229.21875 157.90625 229.121094 157.925781 L 229.121094 120.984375 C 229.894531 120.882812 230.621094 120.722656 231.242188 120.5 L 265.890625 108.09375 Z M 265.890625 117.355469 " fill-opacity="1" fill-rule="nonzero"/></g><path fill="#00a0ff" d="M 45.972656 190.339844 C 52.96875 177.609375 65.703125 169.214844 79.953125 167.652344 C 76.179688 170.789062 73.242188 175.289062 71.496094 181.238281 C 65.457031 201.8125 77.238281 223.386719 97.808594 229.425781 C 109.546875 232.871094 121.613281 230.515625 130.933594 224.03125 C 117.4375 238.417969 96.523438 244.863281 76.300781 238.925781 C 64.253906 235.390625 54.371094 228.019531 47.597656 218.542969 C 41.671875 210.246094 41.0625 199.273438 45.972656 190.339844 " fill-opacity="1" fill-rule="nonzero"/><g clip-path="url(#8cb42610c9)"><path fill="#0cc0df" d="M 127.105469 173.421875 C 118.355469 167.40625 109.375 162.679688 100.039062 159.9375 C 75.273438 152.667969 49.460938 163.96875 37.523438 185.695312 C 37.644531 181.125 38.351562 176.496094 39.699219 171.902344 C 48.101562 143.289062 78.109375 126.902344 106.726562 135.304688 C 163.605469 152.003906 207.238281 242.421875 266.515625 248.609375 C 221.304688 258.359375 168.027344 199.789062 127.105469 173.421875 " fill-opacity="1" fill-rule="nonzero"/></g><path fill="#5e17eb" d="M 329.054688 183.886719 C 322.054688 196.621094 309.320312 205.015625 295.074219 206.578125 C 298.84375 203.441406 301.78125 198.941406 303.527344 192.992188 C 309.570312 172.417969 297.789062 150.84375 277.21875 144.804688 C 265.472656 141.359375 253.410156 143.714844 244.09375 150.199219 C 257.589844 135.808594 278.503906 129.367188 298.726562 135.304688 C 310.773438 138.839844 320.652344 146.210938 327.425781 155.6875 C 333.351562 163.984375 333.960938 174.957031 329.054688 183.886719 " fill-opacity="1" fill-rule="nonzero"/><path fill="#6d27df" d="M 247.917969 200.808594 C 256.667969 206.824219 265.644531 211.546875 274.984375 214.292969 C 299.753906 221.5625 325.5625 210.257812 337.503906 188.535156 C 337.378906 193.105469 336.671875 197.734375 335.324219 202.328125 C 326.921875 230.941406 296.914062 247.328125 268.300781 238.925781 C 211.417969 222.226562 167.789062 131.808594 108.511719 125.621094 C 153.71875 115.871094 207 174.441406 247.917969 200.808594 " fill-opacity="1" fill-rule="nonzero"/></svg>